<svg xmlns="http://www.w3.org/2000/svg" viewBox="0 0 48 48" fill="none">
  <defs>
    <linearGradient id="vg" x1="4" y1="4" x2="44" y2="44" gradientUnits="userSpaceOnUse">
      <stop stop-color="#2563eb"/>
      <stop offset="1" stop-color="#06b6d4"/>
    </linearGradient>
    <linearGradient id="vp" x1="10" y1="38" x2="38" y2="10" gradientUnits="userSpaceOnUse">
      <stop stop-color="#38bdf8"/>
      <stop offset="1" stop-color="#6366f1"/>
    </linearGradient>
  </defs>
  <rect x="2" y="2" width="44" height="44" rx="14" fill="url(#vg)" opacity="0.12"/>
  <path d="M24 8c-1.2 0-2.2 1-2.2 2.2v9.6h-9.6c-1.2 0-2.2 1-2.2 2.2s1 2.2 2.2 2.2h9.6v9.6c0 1.2 1 2.2 2.2 2.2s2.2-1 2.2-2.2v-9.6h9.6c1.2 0 2.2-1 2.2-2.2s-1-2.2-2.2-2.2h-9.6v-9.6c0-1.2-1-2.2-2.2-2.2z" fill="url(#vg)"/>
  <path d="M8 30c3-4 6-6 10-6 3.5 0 6 2 9 6" stroke="url(#vp)" stroke-width="2.5" stroke-linecap="round"/>
  <circle cx="36" cy="14" r="3" fill="#06b6d4" opacity="0.85"/>
</svg>
